# xmcd
#
# Track frame offsets:
#	150
#	15405
#	30902
#	44417
#	59097
#	74405
#	87955
#	103205
#	118247
#	133105
#	148680
#	163965
#	179370
#	196195
#	211257
#	226907
#	240982
#	253737
#	267965
#	284700
#	300280
#	316132
#
# Disc length: 4399 seconds
#
# Revision: 0
# Processed by: cddbd v1.5.2PL0 Copyright (c) Steve Scherf et al.
# Submitted via: EZCDAudioConverter 3.0.7.1
#
DISCID=41112d16
DTITLE=ΣΟΦΙΑ ΒΕΜΠΟ - ΣΟΦΙΑ ΒΕΜΠΟ ΑΞΕΧΑΣΤΗ ΕΠΟΧΗ
DYEAR=2003
DGENRE=Pop
TTITLE0=ΣΟΦΙΑ ΒΕΜΠΟ - ΣΟΦΙΑ ΒΕΜΠΟ ΑΞΕΧΑΣΤΗ ΕΠΟΧΗ
TTITLE1=ΣΟΦΙΑ ΒΕΜΠΟ - ΣΟΦΙΑ ΒΕΜΠΟ ΑΞΕΧΑΣΤΗ ΕΠΟΧΗ
TTITLE2=ΣΟΦΙΑ ΒΕΜΠΟ - ΣΟΦΙΑ ΒΕΜΠΟ ΑΞΕΧΑΣΤΗ ΕΠΟΧΗ
TTITLE3=ΣΟΦΙΑ ΒΕΜΠΟ - ΣΟΦΙΑ ΒΕΜΠΟ ΑΞΕΧΑΣΤΗ ΕΠΟΧΗ
TTITLE4=ΣΟΦΙΑ ΒΕΜΠΟ - ΣΟΦΙΑ ΒΕΜΠΟ ΑΞΕΧΑΣΤΗ ΕΠΟΧΗ
TTITLE5=ΣΟΦΙΑ ΒΕΜΠΟ - ΣΟΦΙΑ ΒΕΜΠΟ ΑΞΕΧΑΣΤΗ ΕΠΟΧΗ
TTITLE6=ΣΟΦΙΑ ΒΕΜΠΟ - ΣΟΦΙΑ ΒΕΜΠΟ ΑΞΕΧΑΣΤΗ ΕΠΟΧΗ
TTITLE7=ΣΟΦΙΑ ΒΕΜΠΟ - ΣΟΦΙΑ ΒΕΜΠΟ ΑΞΕΧΑΣΤΗ ΕΠΟΧΗ
TTITLE8=ΣΟΦΙΑ ΒΕΜΠΟ - ΣΟΦΙΑ ΒΕΜΠΟ ΑΞΕΧΑΣΤΗ ΕΠΟΧΗ
TTITLE9=ΣΟΦΙΑ ΒΕΜΠΟ - ΣΟΦΙΑ ΒΕΜΠΟ ΑΞΕΧΑΣΤΗ ΕΠΟΧΗ
TTITLE10=ΣΟΦΙΑ ΒΕΜΠΟ - ΣΟΦΙΑ ΒΕΜΠΟ ΑΞΕΧΑΣΤΗ ΕΠΟΧΗ
TTITLE11=ΣΟΦΙΑ ΒΕΜΠΟ - ΣΟΦΙΑ ΒΕΜΠΟ ΑΞΕΧΑΣΤΗ ΕΠΟΧΗ
TTITLE12=ΣΟΦΙΑ ΒΕΜΠΟ - ΣΟΦΙΑ ΒΕΜΠΟ ΑΞΕΧΑΣΤΗ ΕΠΟΧΗ
TTITLE13=ΣΟΦΙΑ ΒΕΜΠΟ - ΣΟΦΙΑ ΒΕΜΠΟ ΑΞΕΧΑΣΤΗ ΕΠΟΧΗ
TTITLE14=ΣΟΦΙΑ ΒΕΜΠΟ - ΣΟΦΙΑ ΒΕΜΠΟ ΑΞΕΧΑΣΤΗ ΕΠΟΧΗ
TTITLE15=ΣΟΦΙΑ ΒΕΜΠΟ - ΣΟΦΙΑ ΒΕΜΠΟ ΑΞΕΧΑΣΤΗ ΕΠΟΧΗ
TTITLE16=Wolfgang Petry - Wolfgang Petry - Weihnachten bin ich zu Haus
TTITLE17=Wolfgang Petry - Wolfgang Petry - Leise rieselt der Schnee
TTITLE18=Wolfgang Petry - Wolfgang Petry - Süsser die Glocken nie klingen
TTITLE19=Wolfgang Petry - Wolfgang Petry - Weihnachtszeit ist wunderbar
TTITLE20=Wolfgang Petry - Wolfgang Petry - In 24 Tagen
TTITLE21=Wolfgang Petry - Wolfgang Petry - Der erste Schnee
EXTD=
EXTT0=
EXTT1=
EXTT2=
EXTT3=
EXTT4=
EXTT5=
EXTT6=
EXTT7=
EXTT8=
EXTT9=
EXTT10=
EXTT11=
EXTT12=
EXTT13=
EXTT14=
EXTT15=
EXTT16=
EXTT17=
EXTT18=
EXTT19=
EXTT20=
EXTT21=
PLAYORDER=
